<?xml version="1.0" encoding="UTF-8"?> <svg xmlns="http://www.w3.org/2000/svg" xmlns:xlink="http://www.w3.org/1999/xlink" width="376" height="482" viewBox="0 0 376 482"><defs><path id="rn720kddsa" d="M1.089 0C.489 0 0 .482 0 1.074v26.262h77.204V1.008C77.204.451 76.75 0 76.184 0H1.09z"></path><path id="5cn5oyi3hd" d="M10.57 0c-.832 0-1.594.455-1.98 1.185L0 17.396h82.547l3.376-15.57C86.128.886 85.403 0 84.429 0H10.57z"></path><path id="2bi03sbwfg" d="M5.042 0c-.996 0-1.875.653-2.15 1.602L0 11.597h77.17l2.798-9.672C80.247.959 79.513 0 78.498 0H5.041z"></path><path id="scbxv1sxdj" d="M1.25 0c-.014 0-.03.003-.046.003C.517.041-.023.955 0 2.041v50.833h93.58V2.11C93.58.947 92.983 0 92.24 0H1.25z"></path><path id="4oqr3uiwpm" d="M0 0L15.133 0 15.133 17.476 0 17.476z"></path><path id="2v53nepa0o" d="M0 0L30.011 0 30.011 30.807 0 30.807z"></path><path id="3x5c6aznjq" d="M24.508 2.113L0 10.488c.974 8.026 7.695 14.186 15.855 14.456 12.504.415 31.9-.472 52.718-7.163l32.018-5.922.096-.339c.847-2.99.254-6.199-1.61-8.696 0 0-13.66-2.824-37.522-2.824C51.077 0 38.63.545 24.508 2.113"></path><linearGradient id="gntfzto1nb" x1="-2033.838%" x2="-2031.43%" y1="-957.509%" y2="-949.765%"><stop offset="0%" stop-color="#FFF"></stop><stop offset="100%" stop-color="#ECEBF2"></stop></linearGradient><linearGradient id="nyq9jrvy1e" x1="-1818.821%" x2="-1814.084%" y1="-465.248%" y2="-459.391%"><stop offset="0%" stop-color="#FFF"></stop><stop offset="100%" stop-color="#ECEBF2"></stop></linearGradient><linearGradient id="kk779kcmkh" x1="-1935.552%" x2="-1935.552%" y1="-18693.76%" y2="-18649.593%"><stop offset="0%" stop-color="#FFF"></stop><stop offset="100%" stop-color="#ECEBF2"></stop></linearGradient><linearGradient id="lax8uokbjk" x1="-1645.122%" x2="-1647.523%" y1="-1869.311%" y2="-1849.607%"><stop offset="0%" stop-color="#FFF"></stop><stop offset="100%" stop-color="#ECEBF2"></stop></linearGradient><linearGradient id="rfgkwuv7rr" x1="25.578%" x2="53.741%" y1="46.812%" y2="50.156%"><stop offset="0%" stop-color="#4270B3"></stop><stop offset="100%" stop-color="#214272"></stop></linearGradient></defs><g fill="none" fill-rule="evenodd"><g><g><g><path fill="#ADB8D3" d="M25.203 171.83L34.073 172.98 53.724 313.519 44.445 309.47 17.439 184.258z" transform="translate(-927 -345) translate(927.171 345.928) translate(0 27.34)"></path><path fill="#EBECF0" d="M.007 168.145l12.343 76.788 7.895 67.955c8.062 3.539 17.422 2.217 24.202-3.418L32.71 243.904l-8.502-79.177-24.202 3.418z" transform="translate(-927 -345) translate(927.171 345.928) translate(0 27.34)"></path><path fill="#ADB8D3" d="M24.21 164.727c.233 1.673-4.995 3.795-11.678 4.74-6.684.943-12.29.351-12.524-1.322-.234-1.673 4.994-3.795 11.677-4.74 6.683-.943 12.29-.352 12.524 1.322" transform="translate(-927 -345) translate(927.171 345.928) translate(0 27.34)"></path><path fill="#EECCB4" d="M11.696 238.855L23.546 238.363 21.81 242.446 24.494 245.155 22.572 247.907 25.59 252.984 13.524 253.023z" transform="translate(-927 -345) translate(927.171 345.928) translate(0 27.34)"></path><path fill="#EBECF0" d="M141.739 90.353h-42.03c-1.404 0-2.54-.865-2.54-1.935V0h44.57v90.353z" transform="translate(-927 -345) translate(927.171 345.928) translate(0 27.34)"></path><path fill="#C3E5E3" d="M219.056 90.353h-77.318V0h79.893v87.777c0 1.422-1.152 2.576-2.575 2.576" transform="translate(-927 -345) translate(927.171 345.928) translate(0 27.34)"></path><path fill="#9CC4CE" d="M97.167 0l-17.01 40.248c-.507 1.205.375 2.538 1.684 2.538h38.838c1.931 0 3.674-1.161 4.419-2.944L141.738 0H97.167z" transform="translate(-927 -345) translate(927.171 345.928) translate(0 27.34)"></path><path fill="#ADB8D3" d="M221.632 0l16.85 39.873c.585 1.381-.43 2.913-1.932 2.913h-14.918V0z" transform="translate(-927 -345) translate(927.171 345.928) translate(0 27.34)"></path><path fill="#FFD266" d="M171.007 17.65h-20.062c-.381 0-.692-.31-.692-.692v-6.655c0-.382.31-.692.692-.692h20.062c.382 0 .692.31.692.692v6.655c0 .382-.31.692-.692.692" transform="translate(-927 -345) translate(927.171 345.928) translate(0 27.34)"></path></g><g transform="translate(-927 -345) translate(927.171 345.928) translate(114.616)"><mask id="te6cuevisc" fill="#fff"><use xlink:href="#rn720kddsa"></use></mask><path fill="url(#gntfzto1nb)" d="M1.089 0C.489 0 0 .482 0 1.074v26.262h77.204V1.008C77.204.451 76.75 0 76.184 0H1.09z" mask="url(#te6cuevisc)"></path></g><g transform="translate(-927 -345) translate(927.171 345.928) translate(120.413 9.94)"><mask id="za3z8yzsdf" fill="#fff"><use xlink:href="#5cn5oyi3hd"></use></mask><path fill="url(#nyq9jrvy1e)" d="M10.57 0c-.832 0-1.594.455-1.98 1.185L0 17.396h82.547l3.376-15.57C86.128.886 85.403 0 84.429 0H10.57z" mask="url(#za3z8yzsdf)"></path></g><g transform="translate(-927 -345) translate(927.171 345.928) translate(135.741 15.739)"><mask id="abn7looxoi" fill="#fff"><use xlink:href="#2bi03sbwfg"></use></mask><path fill="url(#kk779kcmkh)" d="M5.042 0c-.996 0-1.875.653-2.15 1.602L0 11.597h77.17l2.798-9.672C80.247.959 79.513 0 78.498 0H5.041z" mask="url(#abn7looxoi)"></path></g><g><path fill="#FFE1C8" d="M13.649 109.305L63.525 109.305 63.525 0.002 13.649 0.002z" transform="translate(-927 -345) translate(927.171 345.928) translate(61.531 117.441)"></path><path fill="#FDC999" d="M150.387 109.304H63.524V.001h89.403v106.763c0 1.402-1.138 2.54-2.54 2.54" transform="translate(-927 -345) translate(927.171 345.928) translate(61.531 117.441)"></path><path fill="#F3B16F" d="M63.525 0l16.266 33.731c.555 1.153 1.723 1.884 3.001 1.884h85.1c1.22 0 2.017-1.282 1.476-2.377L152.925 0h-89.4z" transform="translate(-927 -345) translate(927.171 345.928) translate(61.531 117.441)"></path><path fill="#ADB8D3" d="M63.525 64.305H39.03c-.172 0-.265-.203-.151-.333l2.485-2.841c.081-.093.059-.24-.048-.303l-2.496-1.5c-.115-.07-.131-.23-.031-.321l2.56-2.307c.08-.072.087-.197.015-.28l-2.485-2.84c-.114-.13-.021-.333.15-.333h24.497v11.058z" transform="translate(-927 -345) translate(927.171 345.928) translate(61.531 117.441)"></path><path fill="#ADB8D3" d="M63.525 53.247h24.497c.172 0 .265.202.15.332l-2.485 2.84c-.08.094-.059.24.049.305l2.495 1.5c.115.07.132.229.032.32l-2.56 2.307c-.08.072-.088.197-.016.28l2.486 2.84c.114.13.02.333-.151.333H63.525V53.247z" transform="translate(-927 -345) translate(927.171 345.928) translate(61.531 117.441)"></path><path fill="#FDC999" d="M12.269 0L.173 24.445c-.543 1.097.257 2.383 1.48 2.383h45.568c1.653 0 3.162-.943 3.888-2.427L63.036 0H12.269z" transform="translate(-927 -345) translate(927.171 345.928) translate(61.531 117.441)"></path><path fill="#E5985E" d="M176.674 273.465h-50.949V161.11h54.069v109.923c0 1.343-1.397 2.432-3.12 2.432" transform="translate(-927 -345) translate(927.171 345.928) translate(61.531 117.441)"></path><path fill="#FDC999" d="M4.35 273.465L125.715 273.465 125.715 161.11 4.35 161.11z" transform="translate(-927 -345) translate(927.171 345.928) translate(61.531 117.441)"></path><path fill="#9CC4CE" d="M100.984 203.038H76.665c-.467 0-.846-.378-.846-.845v-8.065c0-.466.379-.843.846-.843h24.319c.467 0 .844.377.844.843v8.065c0 .467-.377.845-.844.845" transform="translate(-927 -345) translate(927.171 345.928) translate(61.531 117.441)"></path><path fill="#EBECF0" d="M125.727 225.877L179.795 225.877 179.795 208.803 125.727 208.803z" transform="translate(-927 -345) translate(927.171 345.928) translate(61.531 117.441)"></path></g><g transform="translate(-927 -345) translate(927.171 345.928) translate(127.49 226.346)"><mask id="ynte3m3rpl" fill="#fff"><use xlink:href="#scbxv1sxdj"></use></mask><path fill="url(#lax8uokbjk)" d="M1.25 0c-.014 0-.03.003-.046.003C.517.041-.023.955 0 2.041v50.833h93.58V2.11C93.58.947 92.983 0 92.24 0H1.25z" mask="url(#ynte3m3rpl)"></path></g><g><path fill="#9CC4CE" d="M18.92 326.063h27.997v62.722H22.07c-1.727 0-3.128-1.4-3.128-3.125v-59.597h-.023z" transform="translate(-927 -345) translate(927.171 345.928) translate(10.372 2.995)"></path><path fill="#EBECF0" d="M46.917 326.063h70.442v59.608c0 1.725-1.402 3.124-3.13 3.124H46.918v-62.732z" transform="translate(-927 -345) translate(927.171 345.928) translate(10.372 2.995)"></path><path fill="#ADB8D3" d="M18.92 326.063l-8.584 17.315c-.313.539-.13 1.23.41 1.543.193.112.415.164.64.15h24.09c1.173-.003 2.243-.673 2.756-1.726l8.459-17.282H18.919zM116.85 326.063l9.148 17.023c.356.65.116 1.466-.535 1.82-.183.101-.386.157-.594.165h-8.02v-19.008z" transform="translate(-927 -345) translate(927.171 345.928) translate(10.372 2.995)"></path><path fill="#FFD266" d="M117.313 353.712v17.169H113.6c-.437 0-.792-.354-.792-.788v-15.581c0-.435.355-.789.792-.789h3.714v-.011z" transform="translate(-927 -345) translate(927.171 345.928) translate(10.372 2.995)"></path><path fill="#FFF" d="M36.312 305.983h70.024v18.951H36.312c3.148-5.94 3.148-13.055 0-18.997v.046z" transform="translate(-927 -345) translate(927.171 345.928) translate(10.372 2.995)"></path><path fill="#B2AEBF" d="M100.813 316.541c.558-.059.963-.558.903-1.117-.05-.475-.427-.851-.903-.901H38.638c.035.671.035 1.347 0 2.018h62.175zM38.356 311.962h62.458c.56-.002 1.013-.458 1.011-1.02 0-.557-.454-1.01-1.011-1.01H37.882c.194.668.35 1.344.474 2.03M101.818 320.016c.006-.556-.439-1.01-.995-1.014H38.357c-.126.686-.283 1.354-.475 2.028h62.93c.556 0 1.006-.448 1.006-1.002v-.012z" transform="translate(-927 -345) translate(927.171 345.928) translate(10.372 2.995)"></path><path fill="#4272B0" d="M34.584 305.227L107.307 305.227 107.307 326.062 34.584 326.062 34.584 324.043 105.285 324.043 105.285 307.257 34.584 307.257z" transform="translate(-927 -345) translate(927.171 345.928) translate(10.372 2.995)"></path><path fill="#E3E3E3" d="M154.79 205.616c0-3.309-2.685-5.99-5.998-5.99H44.728c-3.312 0-5.997 2.681-5.997 5.99v5.402H154.79v-5.402z" transform="translate(-927 -345) translate(927.171 345.928) translate(10.372 2.995)"></path><path fill="#C3E5E3" d="M96.727 211.019L41.669 211.019 41.669 276.753 96.727 276.753 151.785 276.753 151.785 211.019z" transform="translate(-927 -345) translate(927.171 345.928) translate(10.372 2.995)"></path><path fill="#684754" d="M77.01 231.455c0-3.022 2.452-5.471 5.477-5.471h-7.906c-3.028-.138-5.594 2.203-5.732 5.228-.137 3.025 2.206 5.588 5.233 5.726.167.007.334.007.5 0h7.905c-3.027-.006-5.478-2.459-5.478-5.483" transform="translate(-927 -345) translate(927.171 345.928) translate(10.372 2.995)"></path><path fill="#1F253A" d="M117.047 231.455c0-3.022-2.452-5.471-5.478-5.471H79.754c-3.029-.138-5.594 2.203-5.733 5.228-.138 3.025 2.205 5.588 5.235 5.726.166.007.331.007.498 0h31.815c3.028-.006 5.478-2.459 5.478-5.483" transform="translate(-927 -345) translate(927.171 345.928) translate(10.372 2.995)"></path><path fill="#FFD266" d="M127.392 265.467h9.781c.25 0 .452.203.452.45v1.851c0 .25-.202.452-.452.452h-9.78c-.25 0-.453-.203-.453-.452v-1.85c0-.248.202-.45.452-.45" transform="translate(-927 -345) translate(927.171 345.928) translate(10.372 2.995)"></path><path fill="#9CC4CE" d="M112.157 254.626h9.78c.25 0 .452.201.452.451v12.692c0 .248-.202.45-.452.45h-9.78c-.249 0-.453-.202-.453-.45v-12.692c0-.25.204-.451.453-.451" transform="translate(-927 -345) translate(927.171 345.928) translate(10.372 2.995)"></path><path fill="#FFF" d="M.813 382.855l9.845-74.1 17.016 2.257-9.846 74.099c-.623 4.691-4.938 7.992-9.636 7.368-4.7-.623-8.003-4.933-7.38-9.624" transform="translate(-927 -345) translate(927.171 345.928) translate(10.372 2.995)"></path><path fill="#FFD266" d="M29.404 310.085l-10.128 76.207c-.703 5.294-5.569 9.017-10.869 8.314-5.3-.703-9.025-5.563-8.322-10.858L10.2 307.541l2.415.325-10.116 76.196c-.526 3.976 2.274 7.624 6.254 8.15 3.98.526 7.632-2.27 8.16-6.244l10.114-76.197 2.378.314z" transform="translate(-927 -345) translate(927.171 345.928) translate(10.372 2.995)"></path><path fill="#B2AEBF" d="M18.082 309.682l-9.994 75.29c-.091.668-.703 1.133-1.37 1.044-.668-.09-1.134-.703-1.045-1.369l9.996-75.279M23.38 310.381l-9.993 75.292c-.088.666-.697 1.135-1.366 1.048-.666-.087-1.135-.697-1.049-1.363l9.994-75.29" transform="translate(-927 -345) translate(927.171 345.928) translate(10.372 2.995)"></path><path fill="#FFE1C8" d="M230.74 275.994l20.692 48.88c.454 1.16-.117 2.47-1.277 2.925-.246.096-.506.148-.768.156h-47.243c-2.348-.005-4.467-1.414-5.376-3.578l-20.24-48.394 54.212.011z" transform="translate(-927 -345) translate(927.171 345.928) translate(10.372 2.995)"></path><path stroke="#ADB8D3" stroke-width="6" d="M176.304 299.216L255.322 299.216M230.914 328.46L268.208 328.46M240.29 356.664L277.584 356.664M259.041 413.072L296.336 413.072M251.026 387.471L288.32 387.471M268.417 441.276L305.711 441.276" transform="translate(-927 -345) translate(927.171 345.928) translate(10.372 2.995)"></path><path stroke="#90B4BA" stroke-width="8" d="M128.605 471.823l54.453-202.678c3.388-12.606 14.827-21.368 27.893-21.368h29.319" transform="translate(-927 -345) translate(927.171 345.928) translate(10.372 2.995)"></path><path stroke="#A3CDD1" stroke-width="8" d="M291.874 399.443L316.716 471.824M279.646 470.453l-92.628-269.892c-1.656-4.826 1.934-9.845 7.041-9.845h15.48c6.4 0 12.094 4.062 14.17 10.11l19.44 56.647" transform="translate(-927 -345) translate(927.171 345.928) translate(10.372 2.995)"></path><path fill="#ADB8D3" d="M270.715 460.588l4.777 13.919c.939 2.737 3.923 4.196 6.663 3.258 2.742-.94 4.202-3.918 3.262-6.657l-3.61-10.52h-11.092z" transform="translate(-927 -345) translate(927.171 345.928) translate(10.372 2.995)"></path><g transform="translate(-927 -345) translate(927.171 345.928) translate(10.372 2.995) translate(307.124 460.588)"><mask id="cnarmv5inn" fill="#fff"><use xlink:href="#4oqr3uiwpm"></use></mask><path fill="#ADB8D3" d="M0 0l4.937 13.979c.965 2.729 3.962 4.16 6.694 3.198 2.732-.963 4.166-3.956 3.202-6.686L11.126 0H0z" mask="url(#cnarmv5inn)"></path></g><path fill="#FFF" d="M282.11 348.341c-.56.04-1.045-.379-1.086-.938-.032-.434-.16-.738-.393-.93-.396-.324-1.065-.32-1.294-.297-.55.074-1.064-.32-1.136-.873-.073-.553.31-1.06.862-1.136.17-.024 1.688-.205 2.839.724.473.382 1.055 1.102 1.147 2.366.04.558-.379 1.044-.939 1.084" transform="translate(-927 -345) translate(927.171 345.928) translate(10.372 2.995)"></path><path fill="#9CC4CE" d="M326.394 277.987l-1.405-7.118c-.105-.53.305-.908.831-1.073 6.501-2.042 7.334-6.664 7.334-6.664.397-1.438 1.109-2.77 2.087-3.91l28.949 29.721s-4.395 3.8-8.851 2.357c-3.57-1.155-15.715-13.495-21.934-12.875l-5.993.334c-.488.026-.926-.306-1.018-.772" transform="translate(-927 -345) translate(927.171 345.928) translate(10.372 2.995)"></path><g transform="translate(-927 -345) translate(927.171 345.928) translate(10.372 2.995) translate(335.077 258.18)"><mask id="adcwcno34p" fill="#fff"><use xlink:href="#2v53nepa0o"></use></mask><path fill="#FCFCFC" d="M29.388 29.005L2.188.875C1.334-.006.751-.16.402.144c-.644.564-.505.623.35 1.506l27.39 28.475c.856.884 1.245.762 1.589.453.343-.309.512-.689-.343-1.572" mask="url(#adcwcno34p)"></path></g><path fill="#9CC4CE" d="M272.348 371.336c-7.026 2.827-10.632 4.846-9.356 11.299 0 0 8 .998 15.457.037" transform="translate(-927 -345) translate(927.171 345.928) translate(10.372 2.995)"></path><path fill="#FFF" d="M277.994 381.722c-7.259 1.08-14.682-.044-14.76-.058-.69-.147-1.364.174-1.498.711-.134.536.32 1.087 1.013 1.23.088.02.6.123 1.444.247 2.217.324 7.571.804 12.91.2.944-.107 1.832-.537 2.441-1.266.036-.042.066-.08.09-.113.234-.326-1.431-.92-1.431-.92l-.209-.03" transform="translate(-927 -345) translate(927.171 345.928) translate(10.372 2.995)"></path><path fill="#9CC4CE" d="M282.985 369.411c.572-3.696.725-7.992-.1-12.562l-1.789-9.924s-.319-2.195-6.914.225c-1.531.56-4.125 1.476-6.095 2.731l-.409 1.865s1.966 6.638 2.83 15.661c.077.807.15 1.58.226 2.32" transform="translate(-927 -345) translate(927.171 345.928) translate(10.372 2.995)"></path><path fill="#FFF" d="M282.1 368.344c.23-1.71.351-3.509.298-5.344-.149-5.2-.52-7.127-.846-8.826-.316-1.64-.59-3.923-.584-7.518.002-.672.477-.456 1.058-.582.583-.127 1.055.316 1.053.988-.005 3.336.234 4.578.536 6.15.346 1.795.736 3.829.891 9.244.058 1.998-.069 3.946-.313 5.79" transform="translate(-927 -345) translate(927.171 345.928) translate(10.372 2.995)"></path><path fill="#9CC4CE" d="M270.734 369.727c.767 7.528 1.708 11.547 8.268 12.117 0 0 2.835-5.012 3.983-12.433" transform="translate(-927 -345) translate(927.171 345.928) translate(10.372 2.995)"></path><path fill="#FFF" d="M284.193 368.246c-.764 5.785-2.68 10.567-3.687 12.784-.354.777-.595 1.237-.638 1.317-.331.625-.987.906-1.466.63-.478-.278-.6-1.014-.267-1.634.035-.072 2.987-5.734 3.966-12.999" transform="translate(-927 -345) translate(927.171 345.928) translate(10.372 2.995)"></path><path fill="#EFB49A" d="M243.975 112.04l-14.513-17.574c-5.44-6.587-9.614-14.123-12.312-22.225l-13.27-40.748 8.207-3.489 23.757 44.791 20.444 26.914-12.313 12.332z" transform="translate(-927 -345) translate(927.171 345.928) translate(10.372 2.995)"></path><path fill="#EFB49A" d="M213.492 22.097c-1.925-7.126.097-12.943.097-12.943s-2.767-2.089-3.92 1.031-.489 7.722-.489 7.722l-1.364-4.79c-.003-.013 0-.027-.002-.039-.03-.125-.747-3.17-2.76-9.7-.296-.966-1.321-1.509-2.29-1.212-.972.297-1.511 1.322-1.212 2.29 1.154 3.744 1.875 6.33 2.277 7.842l-.035.014c-3.92-8.043-4.812-10.967-4.82-10.996-.284-.969-1.299-1.524-2.27-1.243-.97.281-1.532 1.295-1.25 2.267.036.127.931 3.128 4.998 11.48-.147.079-.294.154-.441.237-3.95-7.344-4.73-9.088-4.77-9.18-.4-.927-1.478-1.354-2.406-.955-.96.38-1.36 1.476-.96 2.405.032.074.818 1.87 5.11 9.841-.153.133-.3.273-.447.413l-3.746-6.543c-.503-.878-1.633-1.192-2.5-.68-.88.501-1.184 1.621-.682 2.498l5.661 9.889c1.474 3.926 4.792 10.97 9.25 9.61l5.778-.626s5.118-1.506 3.193-8.632" transform="translate(-927 -345) translate(927.171 345.928) translate(10.372 2.995)"></path></g><g transform="translate(-927 -345) translate(927.171 345.928) translate(237.273 269.366)"><mask id="sbilo4nj5s" fill="#fff"><use xlink:href="#3x5c6aznjq"></use></mask><path fill="url(#rfgkwuv7rr)" d="M24.508 2.113L0 10.488c.974 8.026 7.695 14.186 15.855 14.456 12.504.415 31.9-.472 52.718-7.163l32.018-5.922.096-.339c.847-2.99.254-6.199-1.61-8.696 0 0-13.66-2.824-37.522-2.824C51.077 0 38.63.545 24.508 2.113" mask="url(#sbilo4nj5s)"></path></g><g><path fill="#4272B0" d="M152.73 173.884s20.633 12.314 11.998 54.37 3.928 65.277-6.667 100.298c-1.965 6.492-1.422 11.05-1.422 11.05l-.831 1.613c-3.005 3.002-7.363 4.204-11.48 3.166 0 0-6.095-22.83-4.368-51.986 1.729-29.155-9.058-52.429-8.815-68.758 0 0-3.249 30.258-5.976 42.705l-21.484 3.269.155-14.83c.056-5.227-.048-10.453-.311-15.674-.624-12.393-.352-24.814.812-37.167l3.746-25.86 44.644-2.196z" transform="translate(-927 -345) translate(927.171 345.928) translate(133.815 10.686)"></path><path fill="#FFD65F" d="M123.857 80.874l-9.19-9.188s-12.865 9.82-11.924 18.886c0 0 6.454 11.39 23.282 12.024 16.828.635-2.168-21.722-2.168-21.722" transform="translate(-927 -345) translate(927.171 345.928) translate(133.815 10.686)"></path><path fill="#FFD65F" d="M145.255 85.36l-18.23-1.504s-3.822 10.179-.667 18.73c0 0 9.912 6.839 26.373 3.28 16.46-3.557-7.476-20.507-7.476-20.507" transform="translate(-927 -345) translate(927.171 345.928) translate(133.815 10.686)"></path><path fill="#F6C0A4" d="M135.422 63.9l-.167-4.139-15.403 13.635c-.275 3.991-2.223 7.733-5.186 10.27-2.179 1.865-1.853 26.075-1.853 26.075l28.485 4.792 11.433-22.631-3.844-6.385c-6.338-.291-11.545-4.471-12.905-10.62-.176-.789-.248-1.598-.56-10.997" transform="translate(-927 -345) translate(927.171 345.928) translate(133.815 10.686)"></path><path fill="#ED8372" d="M121.427 81.688c6.459-.398 11.389-5.87 11.183-12.301l-.365.023-12.393 3.986c-.193 2.81-1.216 5.494-2.838 7.723 1.385.45 2.871.665 4.413.57" transform="translate(-927 -345) translate(927.171 345.928) translate(133.815 10.686)"></path><path fill="#F19F88" d="M109.845 62.33c3.88.334 7.294-2.545 7.627-6.43.332-3.883-2.544-7.302-6.423-7.634-1.172-.1-2.301.092-3.316.517" transform="translate(-927 -345) translate(927.171 345.928) translate(133.815 10.686)"></path><path fill="#F19F88" d="M107.733 48.783c-2.346.981-4.08 3.202-4.312 5.913-.232 2.716 1.104 5.203 3.255 6.568" transform="translate(-927 -345) translate(927.171 345.928) translate(133.815 10.686)"></path><path fill="#F6C0A4" d="M119.619 77.067c-7.839-.673-13.649-7.578-12.977-15.425l1.165-13.599 14.232-13.048 18.378 15.845-.802 9.37c-.871 10.182-9.825 17.73-19.996 16.857" transform="translate(-927 -345) translate(927.171 345.928) translate(133.815 10.686)"></path><path fill="#1A1E37" d="M128.335 25.863l1.07-1.57c-11.862-1.018-22.256 7.245-23.215 18.455-.148 1.718-.065 3.406.224 5.036.062.349.16.689.28 1.021.039.11.08.217.126.323l.744 1.767.179-2.089 1.8-.295c5.043-.57 9.684-3.104 13.307-6.968 1.81 4.539 6.106 10.055 16.309 10.93l7.342.49c1.072-12.54-6.812-24.324-18.166-27.1" transform="translate(-927 -345) translate(927.171 345.928) translate(133.815 10.686)"></path><path fill="#1A1E37" d="M143.654 31.618c-1.579 4.549-7.294 6.695-12.765 4.793-5.472-1.902-8.628-7.133-7.05-11.682 1.58-4.55 7.294-6.696 12.767-4.793 5.471 1.902 8.626 7.132 7.048 11.682" transform="translate(-927 -345) translate(927.171 345.928) translate(133.815 10.686)"></path><path fill="#1A1E37" d="M150.163.307c-.344-.12-.69-.215-1.036-.307-.012.036-.018.074-.032.11-1.2 3.46-3.89 6-7.185 7.234-7.385 2.762-7.401 13.375.005 16.076.068.026.135.049.202.073 6.813 2.368 14.138-.902 16.36-7.304 2.22-6.403-1.5-13.514-8.314-15.882" transform="translate(-927 -345) translate(927.171 345.928) translate(133.815 10.686)"></path><path fill="#1A1E37" d="M137.223 19.679c-.153 0-.3-.074-.39-.211-.185-.285-4.502-7.054-1.637-13.363.107-.235.383-.34.616-.232.233.107.337.383.23.617-1.478 3.256-.832 6.74.036 9.195-.143-3.152.693-7.912 5.484-12.715.181-.182.476-.182.657 0 .182.182.182.476.001.658-7.752 7.77-4.704 15.092-4.57 15.4.095.222.006.48-.206.595-.07.037-.146.056-.22.056" transform="translate(-927 -345) translate(927.171 345.928) translate(133.815 10.686)"></path><path fill="#E96668" d="M143.9 26.787c-.406 0-.815-.133-1.157-.404l-7.23-5.76c-.804-.64-.937-1.81-.297-2.615.64-.806 1.809-.94 2.613-.298l7.23 5.759c.804.639.937 1.81.297 2.616-.366.462-.909.702-1.456.702" transform="translate(-927 -345) translate(927.171 345.928) translate(133.815 10.686)"></path><path fill="#1A1E37" d="M112.4 52.255c-.098 1.145-.747 2.025-1.45 1.964-.702-.06-1.193-1.037-1.095-2.182.098-1.146.748-2.026 1.45-1.965.702.06 1.193 1.037 1.095 2.183M126.169 53.436c-.098 1.146-.747 2.025-1.45 1.964-.703-.059-1.193-1.037-1.095-2.182.098-1.145.748-2.026 1.45-1.965.703.06 1.193 1.037 1.095 2.183" transform="translate(-927 -345) translate(927.171 345.928) translate(133.815 10.686)"></path><path fill="#1A1E37" d="M111.247 51.002c-.013 0-.026 0-.04-.002l-2.01-.173c-.256-.02-.445-.247-.424-.503.022-.256.24-.456.503-.423l2.01.172c.257.021.446.247.424.503-.02.242-.224.426-.463.426M127.026 52.354l-.04-.002-2.01-.174c-.256-.02-.446-.247-.423-.503.02-.256.245-.45.502-.423l2.01.172c.256.022.445.247.423.504-.02.241-.224.426-.462.426" transform="translate(-927 -345) translate(927.171 345.928) translate(133.815 10.686)"></path><path fill="#ED8372" d="M116.108 68.626c-1.19 0-2.298-.655-2.867-1.734-.12-.227-.032-.51.194-.629.228-.12.51-.032.629.194.466.886 1.443 1.373 2.431 1.205l3.06-.514c.257-.046.493.128.536.382.042.253-.129.493-.382.535l-3.06.515c-.18.03-.362.046-.541.046" transform="translate(-927 -345) translate(927.171 345.928) translate(133.815 10.686)"></path><path fill="#1A1E37" d="M118.302 49.268c-.204 0-.392-.137-.448-.344-.068-.247.078-.502.325-.57.17-.048 4.166-1.24 4.218-7.445.002-.255.21-.46.465-.46h.003c.257.001.463.21.461.468-.057 6.936-4.704 8.28-4.901 8.334-.042.011-.082.017-.123.017" transform="translate(-927 -345) translate(927.171 345.928) translate(133.815 10.686)"></path><path fill="#F6C0A4" d="M134.701 57.379c-.332 3.884 2.543 7.302 6.424 7.635 3.88.332 7.295-2.546 7.627-6.43.333-3.884-2.543-7.302-6.423-7.635-3.88-.332-7.295 2.546-7.628 6.43" transform="translate(-927 -345) translate(927.171 345.928) translate(133.815 10.686)"></path><path fill="#ED8372" d="M138.704 61.307c-.207 0-.395-.14-.45-.348-.039-.15-.93-3.69 1.592-5.236 2.999-1.838 5.68-.007 5.791.072.21.146.261.436.116.646-.146.21-.435.265-.647.118-.093-.065-2.305-1.555-4.774-.042-1.94 1.188-1.186 4.177-1.178 4.207.065.248-.084.503-.333.567-.04.01-.079.016-.117.016" transform="translate(-927 -345) translate(927.171 345.928) translate(133.815 10.686)"></path><path fill="#ED8372" d="M143.421 62.288c-.02 0-.042-.002-.063-.004-.254-.036-.432-.27-.398-.524.024-.176.542-4.316-2.982-5.19-.25-.06-.402-.313-.34-.562.062-.25.314-.4.563-.34 3.473.86 3.926 4.444 3.68 6.219-.032.233-.23.4-.46.4" transform="translate(-927 -345) translate(927.171 345.928) translate(133.815 10.686)"></path><path fill="#E96668" d="M105.36 43.372c-2.138 0-4.188.746-5.843 2.141-1.857 1.566-2.995 3.763-3.202 6.187-.208 2.422.54 4.781 2.105 6.64 1.564 1.86 3.759 3 6.18 3.207 2.417.206 4.776-.54 6.634-2.107 1.858-1.566 2.997-3.763 3.204-6.186.207-2.423-.54-4.782-2.106-6.642-1.564-1.86-3.759-2.998-6.18-3.205-.265-.023-.529-.035-.792-.035m.035 19.818c-.31 0-.62-.014-.932-.041-2.849-.244-5.431-1.584-7.272-3.772-1.842-2.189-2.72-4.964-2.477-7.815.244-2.85 1.583-5.435 3.77-7.28 2.185-1.842 4.959-2.72 7.806-2.478 2.848.244 5.43 1.585 7.27 3.773 1.842 2.19 2.722 4.963 2.478 7.815-.244 2.85-1.583 5.436-3.769 7.278-1.946 1.641-4.359 2.52-6.874 2.52" transform="translate(-927 -345) translate(927.171 345.928) translate(133.815 10.686)"></path><path fill="#E96668" d="M120.461 54.578L115.169 54.125 115.306 52.522 120.598 52.976z" transform="translate(-927 -345) translate(927.171 345.928) translate(133.815 10.686)"></path><path fill="#E96668" d="M130.384 45.519c-4.666 0-8.648 3.588-9.054 8.327-.207 2.422.54 4.78 2.105 6.64 1.564 1.861 3.759 3 6.18 3.207 4.992.435 9.41-3.292 9.838-8.292.428-5.002-3.289-9.42-8.285-9.849-.262-.022-.524-.033-.784-.033m.015 19.815c-.305 0-.613-.012-.921-.04-2.849-.244-5.431-1.583-7.272-3.771-1.841-2.188-2.72-4.965-2.477-7.815.504-5.885 5.694-10.26 11.576-9.758 5.878.505 10.252 5.702 9.748 11.587-.478 5.576-5.164 9.797-10.654 9.797" transform="translate(-927 -345) translate(927.171 345.928) translate(133.815 10.686)"></path><path fill="#F6C0A4" d="M117.468 53.894l-4.324 4.857c-1.378 2.122 1.296 4.973 4.04 5.21" transform="translate(-927 -345) translate(927.171 345.928) translate(133.815 10.686)"></path><path fill="#ED8372" d="M117.184 64.424c-.013 0-.026 0-.04-.002-1.832-.156-3.718-1.41-4.485-2.98-.503-1.032-.469-2.077.095-2.946l4.366-4.912c.171-.192.465-.21.657-.037.192.171.208.465.038.656l-4.324 4.857c-.443.692-.246 1.46.004 1.972.622 1.276 2.225 2.335 3.728 2.464.256.02.446.247.424.503-.02.242-.224.425-.463.425" transform="translate(-927 -345) translate(927.171 345.928) translate(133.815 10.686)"></path><path fill="#FFE164" d="M145.255 85.36s-7.366 21.948-21.075 22.792c-13.71.842-9.76-24.296-9.76-24.296s-6.811 21.914-11.769 27.43c-6.66 7.412-1.93 21.97 6.854 22.463l-3.864-1.251s-.722 40-2.662 49.657c0 0 25.875 14.825 64.085-5.15 0 0-7.874-13.062-5.948-38.653 1.927-25.59 2.702-35.162.402-42.874L145.255 85.36z" transform="translate(-927 -345) translate(927.171 345.928) translate(133.815 10.686)"></path><path fill="#F6C0A4" d="M118.429 108.047L70.124 82.89 75.331 68.938 135.481 91.433z" transform="translate(-927 -345) translate(927.171 345.928) translate(133.815 10.686)"></path><path fill="#F9CD5F" d="M162.79 113.555s2.957-18.18-5.929-26.394c-5.728-5.293-18.647-4.82-34-1.745l.377.815c1.88 4.077 2.37 8.723 1.053 13.015-1.072 3.491-4.317 7.295-4.317 7.295l-2.995 1.68s29.62 12.523 45.811 5.334" transform="translate(-927 -345) translate(927.171 345.928) translate(133.815 10.686)"></path><path fill="#F7C2AA" d="M36.48 15.06s-.728 1.546.578 1.982c1.305.434 9.1 3.084 9.1 3.084l3.9-2.346-13.578-2.72z" transform="translate(-927 -345) translate(927.171 345.928) translate(133.815 10.686)"></path><path fill="#F7C2AA" d="M36.487 15.243s-.317-2.297 2.232-2.34c2.549-.044 14.015 3.157 14.015 3.157l-2.797 2.062-13.45-2.879z" transform="translate(-927 -345) translate(927.171 345.928) translate(133.815 10.686)"></path><path fill="#F7C2AA" d="M40.745 13.251s.945-1.188 3.036-.826c2.09.36 10.493 2.311 10.493 2.311l-1.88 1.248-11.649-2.733z" transform="translate(-927 -345) translate(927.171 345.928) translate(133.815 10.686)"></path><path fill="#F7C2AA" d="M48.415 36.312c1.34 2.366 3.052 2.137 4.53 1.97l5.715-2.332s-.946-9.478-.664-13.156c.282-3.679 1.112-6.977-3.722-8.058l-8.116 5.39s.498 2.414 2.241 2.626c0 0-1.186 1.659-.038 5.286 0 0-.717 1.083-.34 1.973 0 0-.947 3.935.394 6.301" transform="translate(-927 -345) translate(927.171 345.928) translate(133.815 10.686)"></path><path fill="#F7C2AA" d="M51.982 37.027s.594 24.125 9.3 38.505c7.445 12.297 14.022 5.962 14.022 5.962s8.314-4.224-.528-18.197C65.935 49.324 59.491 42.661 58.653 35.77l-6.671 1.258z" transform="translate(-927 -345) translate(927.171 345.928) translate(133.815 10.686)"></path><path fill="#FFF" d="M157.131 338.595s.448.106.415 1.109c-.032 1.002.827-.63.827-.63l-.785-1.299-.457.82z" transform="translate(-927 -345) translate(927.171 345.928) translate(133.815 10.686)"></path><path stroke="#A3CDD1" stroke-width="8" d="M101.285 195.682L168.429 391.745" transform="translate(-927 -345) translate(927.171 345.928) translate(133.815 10.686)"></path><path fill="#ADB8D3" d="M3.064 452.905L.18 463.665c-.75 2.796.907 5.67 3.7 6.421 2.794.75 5.666-.908 6.414-3.704l3.613-13.477H3.064z" transform="translate(-927 -345) translate(927.171 345.928) translate(133.815 10.686)"></path><path stroke="#A3CDD1" stroke-width="8" d="M34.735 464.143l54.349-202.727c3.38-12.609 14.798-21.373 27.84-21.373" transform="translate(-927 -345) translate(927.171 345.928) translate(133.815 10.686)"></path><path fill="#ADB8D3" d="M32.327 452.905l-2.885 10.76c-.75 2.796.908 5.67 3.7 6.421 2.793.75 5.665-.908 6.415-3.704l3.613-13.477H32.327z" transform="translate(-927 -345) translate(927.171 345.928) translate(133.815 10.686)"></path></g></g></g></g></svg> 